<svg id="visual" viewBox="0 0 900 360" width="900" height="360" xmlns="http://www.w3.org/2000/svg" xmlns:xlink="http://www.w3.org/1999/xlink" version="1.1"><rect x="0" y="0" width="900" height="360" fill="#1A3636"></rect><path d="M0 236L21.5 238.3C43 240.7 86 245.3 128.8 242.5C171.7 239.7 214.3 229.3 257.2 230C300 230.7 343 242.3 385.8 246.3C428.7 250.3 471.3 246.7 514.2 246.7C557 246.7 600 250.3 642.8 252C685.7 253.7 728.3 253.3 771.2 249.7C814 246 857 239 878.5 235.5L900 232L900 361L878.5 361C857 361 814 361 771.2 361C728.3 361 685.7 361 642.8 361C600 361 557 361 514.2 361C471.3 361 428.7 361 385.8 361C343 361 300 361 257.2 361C214.3 361 171.7 361 128.8 361C86 361 43 361 21.5 361L0 361Z" fill="#677d6a"></path><path d="M0 260L21.5 262.2C43 264.3 86 268.7 128.8 269.5C171.7 270.3 214.3 267.7 257.2 266.8C300 266 343 267 385.8 267.7C428.7 268.3 471.3 268.7 514.2 267.7C557 266.7 600 264.3 642.8 264.3C685.7 264.3 728.3 266.7 771.2 264.8C814 263 857 257 878.5 254L900 251L900 361L878.5 361C857 361 814 361 771.2 361C728.3 361 685.7 361 642.8 361C600 361 557 361 514.2 361C471.3 361 428.7 361 385.8 361C343 361 300 361 257.2 361C214.3 361 171.7 361 128.8 361C86 361 43 361 21.5 361L0 361Z" fill="#7e8e73"></path><path d="M0 303L21.5 303.5C43 304 86 305 128.8 301C171.7 297 214.3 288 257.2 281.3C300 274.7 343 270.3 385.8 273.2C428.7 276 471.3 286 514.2 290.5C557 295 600 294 642.8 293.2C685.7 292.3 728.3 291.7 771.2 293.2C814 294.7 857 298.3 878.5 300.2L900 302L900 361L878.5 361C857 361 814 361 771.2 361C728.3 361 685.7 361 642.8 361C600 361 557 361 514.2 361C471.3 361 428.7 361 385.8 361C343 361 300 361 257.2 361C214.3 361 171.7 361 128.8 361C86 361 43 361 21.5 361L0 361Z" fill="#999e7d"></path><path d="M0 312L21.5 308.7C43 305.3 86 298.7 128.8 295.8C171.7 293 214.3 294 257.2 298.2C300 302.3 343 309.7 385.8 312.3C428.7 315 471.3 313 514.2 311.7C557 310.3 600 309.7 642.8 308.7C685.7 307.7 728.3 306.3 771.2 306.5C814 306.7 857 308.3 878.5 309.2L900 310L900 361L878.5 361C857 361 814 361 771.2 361C728.3 361 685.7 361 642.8 361C600 361 557 361 514.2 361C471.3 361 428.7 361 385.8 361C343 361 300 361 257.2 361C214.3 361 171.7 361 128.8 361C86 361 43 361 21.5 361L0 361Z" fill="#b7ae89"></path><path d="M0 342L21.5 341C43 340 86 338 128.8 334.5C171.7 331 214.3 326 257.2 323.7C300 321.3 343 321.7 385.8 321.7C428.7 321.7 471.3 321.3 514.2 322.5C557 323.7 600 326.3 642.8 325.2C685.7 324 728.3 319 771.2 321.5C814 324 857 334 878.5 339L900 344L900 361L878.5 361C857 361 814 361 771.2 361C728.3 361 685.7 361 642.8 361C600 361 557 361 514.2 361C471.3 361 428.7 361 385.8 361C343 361 300 361 257.2 361C214.3 361 171.7 361 128.8 361C86 361 43 361 21.5 361L0 361Z" fill="#d6bd98"></path></svg>