<svg id="visual" viewBox="0 0 960 300" width="960" height="300" xmlns="http://www.w3.org/2000/svg" xmlns:xlink="http://www.w3.org/1999/xlink" version="1.1"><rect x="0" y="0" width="960" height="300" fill="#001220"></rect><path d="M0 180L22.8 180C45.7 180 91.3 180 137 180.2C182.7 180.3 228.3 180.7 274 186C319.7 191.3 365.3 201.7 411.2 203.5C457 205.3 503 198.7 548.8 196.5C594.7 194.3 640.3 196.7 686 195.8C731.7 195 777.3 191 823 191C868.7 191 914.3 195 937.2 197L960 199L960 301L937.2 301C914.3 301 868.7 301 823 301C777.3 301 731.7 301 686 301C640.3 301 594.7 301 548.8 301C503 301 457 301 411.2 301C365.3 301 319.7 301 274 301C228.3 301 182.7 301 137 301C91.3 301 45.7 301 22.8 301L0 301Z" fill="#f7770f"></path><path d="M0 213L22.8 217.2C45.7 221.3 91.3 229.7 137 228.7C182.7 227.7 228.3 217.3 274 213.3C319.7 209.3 365.3 211.7 411.2 214.3C457 217 503 220 548.8 221.7C594.7 223.3 640.3 223.7 686 222.7C731.7 221.7 777.3 219.3 823 216.5C868.7 213.7 914.3 210.3 937.2 208.7L960 207L960 301L937.2 301C914.3 301 868.7 301 823 301C777.3 301 731.7 301 686 301C640.3 301 594.7 301 548.8 301C503 301 457 301 411.2 301C365.3 301 319.7 301 274 301C228.3 301 182.7 301 137 301C91.3 301 45.7 301 22.8 301L0 301Z" fill="#ec4356"></path><path d="M0 250L22.8 248C45.7 246 91.3 242 137 237.5C182.7 233 228.3 228 274 229C319.7 230 365.3 237 411.2 240.3C457 243.7 503 243.3 548.8 245.2C594.7 247 640.3 251 686 247.2C731.7 243.3 777.3 231.7 823 231.5C868.7 231.3 914.3 242.7 937.2 248.3L960 254L960 301L937.2 301C914.3 301 868.7 301 823 301C777.3 301 731.7 301 686 301C640.3 301 594.7 301 548.8 301C503 301 457 301 411.2 301C365.3 301 319.7 301 274 301C228.3 301 182.7 301 137 301C91.3 301 45.7 301 22.8 301L0 301Z" fill="#b9367f"></path><path d="M0 262L22.8 261.2C45.7 260.3 91.3 258.7 137 259.2C182.7 259.7 228.3 262.3 274 261.5C319.7 260.7 365.3 256.3 411.2 253.2C457 250 503 248 548.8 246C594.7 244 640.3 242 686 242C731.7 242 777.3 244 823 244.3C868.7 244.7 914.3 243.3 937.2 242.7L960 242L960 301L937.2 301C914.3 301 868.7 301 823 301C777.3 301 731.7 301 686 301C640.3 301 594.7 301 548.8 301C503 301 457 301 411.2 301C365.3 301 319.7 301 274 301C228.3 301 182.7 301 137 301C91.3 301 45.7 301 22.8 301L0 301Z" fill="#6c408a"></path><path d="M0 267L22.8 268.7C45.7 270.3 91.3 273.7 137 276C182.7 278.3 228.3 279.7 274 278.2C319.7 276.7 365.3 272.3 411.2 271.7C457 271 503 274 548.8 273.5C594.7 273 640.3 269 686 267.7C731.7 266.3 777.3 267.7 823 267.7C868.7 267.7 914.3 266.3 937.2 265.7L960 265L960 301L937.2 301C914.3 301 868.7 301 823 301C777.3 301 731.7 301 686 301C640.3 301 594.7 301 548.8 301C503 301 457 301 411.2 301C365.3 301 319.7 301 274 301C228.3 301 182.7 301 137 301C91.3 301 45.7 301 22.8 301L0 301Z" fill="#073d74"></path></svg>